<svg id="visual" viewBox="0 0 960 540" width="960" height="540" xmlns="http://www.w3.org/2000/svg" xmlns:xlink="http://www.w3.org/1999/xlink" version="1.1"><path d="M0 435L17.8 436C35.7 437 71.3 439 106.8 447.3C142.3 455.7 177.7 470.3 213.2 474.8C248.7 479.3 284.3 473.7 320 463.3C355.7 453 391.3 438 426.8 441.8C462.3 445.7 497.7 468.3 533.2 477C568.7 485.7 604.3 480.3 640 470.8C675.7 461.3 711.3 447.7 746.8 438.8C782.3 430 817.7 426 853.2 431.2C888.7 436.3 924.3 450.7 942.2 457.8L960 465L960 541L942.2 541C924.3 541 888.7 541 853.2 541C817.7 541 782.3 541 746.8 541C711.3 541 675.7 541 640 541C604.3 541 568.7 541 533.2 541C497.7 541 462.3 541 426.8 541C391.3 541 355.7 541 320 541C284.3 541 248.7 541 213.2 541C177.7 541 142.3 541 106.8 541C71.3 541 35.7 541 17.8 541L0 541Z" fill="#005dff" stroke-linecap="round" stroke-linejoin="miter"></path></svg>